<svg height="512pt" viewBox="-57 0 511 512" width="512pt" xmlns="http://www.w3.org/2000/svg"><path d="m372.175781 405.027344c10.695313-43.433594 16.855469-94.449219 16.855469-149.027344 0-54.609375-6.167969-105.652344-16.875-149.101562l-22.480469-66.265626c-5.203125-11.335937-10.820312-21.535156-16.789062-30.441406-1.121094-1.675781-2.992188-2.691406-5.007813-2.691406h-258.730468c-2.015626 0-3.882813 1.015625-5.007813 2.691406-5.964844 8.90625-11.582031 19.105469-16.785156 30.4375l-22.5 66.339844c-10.695313 43.433594-16.859375 94.453125-16.859375 149.03125s6.164062 105.59375 16.859375 149.027344l22.496093 66.335937c5.203126 11.335938 10.820313 21.535157 16.789063 30.445313 1.125 1.671875 2.992187 2.6875 5.007813 2.6875h258.730468c2.015625 0 3.886719-1.015625 5.007813-2.6875 5.96875-8.910156 11.585937-19.109375 16.789062-30.449219zm0 0" fill="#c95b2a"/><path d="m198.515625 504.496094v-496.996094h-66.265625c-3.328125 9.523438-6.445312 20.636719-9.3125 33.128906l-11.25 66.339844c-5.351562 43.433594-8.429688 94.453125-8.429688 149.03125s3.082032 105.59375 8.429688 149.027344l11.246094 66.332031c2.867187 12.496094 5.988281 23.613281 9.316406 33.136719zm0 0" fill="#b34c1e"/><path d="m274.097656 471.359375c-2.871094 12.496094-5.988281 23.613281-9.316406 33.136719h63.097656c2.015625 0 3.886719-1.015625 5.007813-2.691406 5.96875-8.90625 11.585937-19.109376 16.789062-30.445313l22.5-66.332031c10.695313-43.4375 16.855469-94.453125 16.855469-149.03125 0-54.605469-6.167969-105.648438-16.875-149.097656l-22.484375-66.269532c-5.203125-11.335937-10.816406-21.53125-16.785156-30.441406-1.121094-1.671875-2.992188-2.6875-5.007813-2.6875h-63.097656c3.328125 9.523438 6.445312 20.636719 9.3125 33.128906l11.25 66.339844c5.347656 43.433594 8.429688 94.449219 8.429688 149.027344 0 54.609375-3.085938 105.652344-8.4375 149.101562zm0 0" fill="#b34c1e"/><path d="m372.15625 106.898438-22.480469-66.269532c-5.203125-11.332031-10.820312-21.53125-16.789062-30.4375-1.121094-1.675781-2.992188-2.691406-5.007813-2.691406h-25.707031c2.015625 0 3.886719 1.015625 5.007813 2.691406 5.96875 8.90625 11.585937 19.105469 16.789062 30.4375l22.480469 66.269532c10.707031 43.449218 16.875 94.492187 16.875 149.097656 0 54.582031-6.160157 105.597656-16.855469 149.03125l-22.5 66.332031c-5.203125 11.339844-10.820312 21.539063-16.789062 30.449219-1.121094 1.671875-2.992188 2.6875-5.007813 2.6875h25.707031c2.015625 0 3.886719-1.015625 5.007813-2.6875 5.96875-8.910156 11.585937-19.109375 16.789062-30.449219l22.5-66.332031c10.695313-43.433594 16.855469-94.453125 16.855469-149.03125 0-54.605469-6.167969-105.648438-16.875-149.097656zm0 0" fill="#9e4118"/><path d="m373.0625 106.898438h-349.09375c-3.90625 0-6.769531-3.667969-5.824219-7.453126l13.566407-54.269531c.667968-2.671875 3.070312-4.542969 5.820312-4.542969h321.964844c2.75 0 5.152344 1.871094 5.820312 4.542969l13.566406 54.269531c.949219 3.785157-1.917968 7.453126-5.820312 7.453126zm0 0" fill="#333"/><path d="m215.082031 73.765625c0 9.148437-7.417969 16.566406-16.566406 16.566406s-16.566406-7.417969-16.566406-16.566406c0-9.152344 7.417969-16.566406 16.566406-16.566406s16.566406 7.414062 16.566406 16.566406zm0 0" fill="#fdbf00"/><path d="m115.679688 73.765625c0 9.148437-7.414063 16.566406-16.566407 16.566406-9.148437 0-16.566406-7.417969-16.566406-16.566406 0-9.152344 7.417969-16.566406 16.566406-16.566406 9.152344 0 16.566407 7.414062 16.566407 16.566406zm0 0" fill="#fdbf00"/><path d="m314.480469 73.765625c0 9.148437-7.414063 16.566406-16.566407 16.566406-9.148437 0-16.566406-7.417969-16.566406-16.566406 0-9.152344 7.417969-16.566406 16.566406-16.566406 9.152344 0 16.566407 7.414062 16.566407 16.566406zm0 0" fill="#fdbf00"/><path d="m23.96875 405.09375h349.09375c3.902344 0 6.769531 3.667969 5.820312 7.457031l-13.5625 54.265625c-.667968 2.671875-3.070312 4.542969-5.824218 4.542969h-321.960938c-2.753906 0-5.152344-1.871094-5.820312-4.542969l-13.570313-54.265625c-.945312-3.789062 1.917969-7.457031 5.824219-7.457031zm0 0" fill="#333"/><path d="m215.082031 438.226562c0 9.152344-7.417969 16.570313-16.566406 16.570313-9.152344 0-16.566406-7.417969-16.566406-16.570313 0-9.148437 7.414062-16.566406 16.566406-16.566406 9.148437 0 16.566406 7.417969 16.566406 16.566406zm0 0" fill="#fdbf00"/><path d="m314.484375 438.226562c0 9.152344-7.417969 16.570313-16.570313 16.570313-9.148437 0-16.566406-7.417969-16.566406-16.570313 0-9.148437 7.417969-16.566406 16.566406-16.566406 9.152344 0 16.570313 7.417969 16.570313 16.566406zm0 0" fill="#fdbf00"/><path d="m115.679688 438.226562c0 9.152344-7.414063 16.570313-16.566407 16.570313-9.148437 0-16.566406-7.417969-16.566406-16.570313 0-9.148437 7.417969-16.566406 16.566406-16.566406 9.152344 0 16.566407 7.417969 16.566407 16.566406zm0 0" fill="#fdbf00"/><path d="m378.882812 99.445312-13.566406-54.269531c-.667968-2.671875-3.070312-4.542969-5.820312-4.542969h-24c2.75 0 5.152344 1.871094 5.820312 4.542969l13.566406 54.269531c.949219 3.785157-1.917968 7.453126-5.820312 7.453126h24c3.902344 0 6.769531-3.667969 5.820312-7.453126zm0 0" fill="#1f1f1f"/><path d="m373.0625 405.09375h-24c3.902344 0 6.769531 3.667969 5.820312 7.457031l-13.5625 54.265625c-.667968 2.671875-3.070312 4.542969-5.824218 4.542969h24c2.753906 0 5.15625-1.871094 5.824218-4.542969l13.5625-54.265625c.949219-3.789062-1.917968-7.457031-5.820312-7.457031zm0 0" fill="#1f1f1f"/><g fill="#fda400"><path d="m99.113281 57.199219c-3.761719 0-7.21875 1.265625-10 3.378906 3.984375 3.027344 6.566407 7.800781 6.566407 13.1875s-2.582032 10.160156-6.566407 13.1875c2.78125 2.113281 6.238281 3.378906 10 3.378906 9.152344 0 16.566407-7.414062 16.566407-16.566406s-7.414063-16.566406-16.566407-16.566406zm0 0"/><path d="m198.515625 57.199219c-3.761719 0-7.21875 1.265625-10 3.378906 3.984375 3.027344 6.566406 7.800781 6.566406 13.1875s-2.582031 10.160156-6.566406 13.1875c2.78125 2.113281 6.238281 3.378906 10 3.378906 9.148437 0 16.566406-7.414062 16.566406-16.566406s-7.417969-16.566406-16.566406-16.566406zm0 0"/><path d="m297.914062 57.199219c-3.761718 0-7.21875 1.265625-10 3.378906 3.984376 3.027344 6.570313 7.800781 6.570313 13.1875s-2.585937 10.160156-6.570313 13.1875c2.78125 2.113281 6.238282 3.378906 10 3.378906 9.152344 0 16.570313-7.414062 16.570313-16.566406s-7.417969-16.566406-16.570313-16.566406zm0 0"/><path d="m99.113281 421.660156c-3.761719 0-7.21875 1.269532-10 3.382813 3.984375 3.023437 6.566407 7.796875 6.566407 13.183593 0 5.390626-2.582032 10.164063-6.566407 13.1875 2.78125 2.113282 6.238281 3.382813 10 3.382813 9.152344 0 16.566407-7.417969 16.566407-16.570313 0-9.148437-7.414063-16.566406-16.566407-16.566406zm0 0"/><path d="m198.515625 421.660156c-3.761719 0-7.21875 1.269532-10 3.382813 3.984375 3.023437 6.566406 7.796875 6.566406 13.183593 0 5.390626-2.582031 10.164063-6.566406 13.1875 2.78125 2.113282 6.238281 3.382813 10 3.382813 9.148437 0 16.566406-7.417969 16.566406-16.570313 0-9.148437-7.417969-16.566406-16.566406-16.566406zm0 0"/><path d="m297.914062 421.660156c-3.761718 0-7.21875 1.269532-10 3.382813 3.984376 3.023437 6.570313 7.796875 6.570313 13.183593 0 5.390626-2.585937 10.164063-6.570313 13.1875 2.78125 2.113282 6.238282 3.382813 10 3.382813 9.152344 0 16.570313-7.417969 16.570313-16.570313 0-9.148437-7.417969-16.566406-16.570313-16.566406zm0 0"/></g><path d="m198.515625 49.699219c-13.269531 0-24.066406 10.796875-24.066406 24.066406s10.796875 24.066406 24.066406 24.066406 24.066406-10.796875 24.066406-24.066406-10.796875-24.066406-24.066406-24.066406zm0 33.132812c-5 0-9.066406-4.066406-9.066406-9.066406s4.066406-9.066406 9.066406-9.066406 9.066406 4.066406 9.066406 9.066406-4.066406 9.066406-9.066406 9.066406zm0 0"/><path d="m99.113281 49.699219c-13.269531 0-24.066406 10.796875-24.066406 24.066406s10.796875 24.066406 24.066406 24.066406c13.273438 0 24.066407-10.796875 24.066407-24.066406s-10.792969-24.066406-24.066407-24.066406zm0 33.132812c-5 0-9.066406-4.066406-9.066406-9.066406s4.066406-9.066406 9.066406-9.066406 9.066407 4.066406 9.066407 9.066406-4.066407 9.066406-9.066407 9.066406zm0 0"/><path d="m297.914062 49.699219c-13.269531 0-24.066406 10.796875-24.066406 24.066406s10.796875 24.066406 24.066406 24.066406c13.269532 0 24.066407-10.796875 24.066407-24.066406s-10.792969-24.066406-24.066407-24.066406zm0 33.132812c-5 0-9.066406-4.066406-9.066406-9.066406s4.066406-9.066406 9.066406-9.066406 9.066407 4.066406 9.066407 9.066406-4.066407 9.066406-9.066407 9.066406zm0 0"/><path d="m381.621094 397.644531c9.765625-43.15625 14.910156-91.898437 14.910156-141.648437s-5.144531-98.488282-14.914062-141.648438c1.980468-.230468 3.800781-1.242187 5.042968-2.832031 1.421875-1.820313 1.925782-4.195313 1.363282-6.4375l-16.566407-66.265625c-.835937-3.339844-3.835937-5.679688-7.277343-5.679688h-9.746094c-5.367188-11.167968-11.152344-21.222656-17.238282-29.929687-1.40625-2.007813-3.699218-3.203125-6.148437-3.203125h-265.0625c-2.449219 0-4.746094 1.195312-6.148437 3.203125-6.085938 8.707031-11.871094 18.761719-17.238282 29.929687h-9.75c-3.441406 0-6.441406 2.34375-7.277344 5.679688l-16.5625 66.265625c-.5625 2.242187-.058593 4.617187 1.363282 6.4375 1.242187 1.589844 3.0625 2.601563 5.042968 2.832031-3 13.253906-5.589843 27.097656-7.707031 41.292969-.609375 4.097656 2.214844 7.910156 6.3125 8.523437.375.054688.75.082032 1.117188.082032 3.652343 0 6.851562-2.671875 7.40625-6.394532 2.234375-14.996093 5.003906-29.582031 8.242187-43.453124h72.464844c-4.910156 43.082031-7.496094 91.828124-7.496094 141.601562 0 49.769531 2.585938 98.511719 7.496094 141.59375h-72.449219c-10.011719-42.871094-15.300781-91.671875-15.300781-141.59375 0-22.839844 1.097656-45.550781 3.265625-67.511719.40625-4.121093-2.605469-7.792969-6.726563-8.199219-4.121093-.40625-7.792968 2.601563-8.199218 6.726563-2.21875 22.445313-3.339844 45.65625-3.339844 68.980469 0 49.753906 5.144531 98.492187 14.910156 141.648437-1.976562.230469-3.796875 1.242188-5.039062 2.832031-1.421875 1.820313-1.925782 4.195313-1.363282 6.4375l16.566407 66.265626c.835937 3.339843 3.835937 5.679687 7.277343 5.679687h9.746094c5.363282 11.167969 11.152344 21.222656 17.238282 29.933594 1.402343 2.007812 3.699218 3.203125 6.148437 3.203125h66.238281c.011719 0 .019532.003906.027344.003906s.015625-.003906.023438-.003906h132.484374c.007813 0 .015626.003906.023438.003906s.015625-.003906.023438-.003906h66.242187c2.449219 0 4.742187-1.195313 6.148437-3.203125 6.085938-8.707031 11.871094-18.765625 17.238282-29.933594h9.746094c3.441406 0 6.441406-2.339844 7.277343-5.679687l16.566407-66.265626c.558593-2.242187.054687-4.617187-1.367188-6.4375-1.238281-1.585937-3.058594-2.597656-5.035156-2.832031zm-87.84375-.050781c4.910156-43.082031 7.496094-91.824219 7.496094-141.597656 0-49.765625-2.585938-98.511719-7.496094-141.597656h72.449218c10.011719 42.875 15.304688 91.675781 15.304688 141.597656s-5.292969 98.722656-15.300781 141.597656zm-87.761719 0v-141.402344c0-.0625.007813-.125.007813-.191406s-.007813-.128906-.007813-.195312v-141.40625h72.65625c4.972656 42.941406 7.601563 91.722656 7.601563 141.597656 0 49.878906-2.625 98.660156-7.601563 141.597656zm131.652344-364.460938h-57.648438c-1.574219-6.449218-3.21875-12.503906-4.925781-18.132812h51.984375c3.65625 5.511719 7.195313 11.582031 10.589844 18.132812zm-146.652344-18.132812v18.132812h-58.550781c1.660156-6.535156 3.394531-12.585937 5.1875-18.132812zm15 0h53.363281c1.792969 5.546875 3.527344 11.601562 5.1875 18.132812h-58.550781zm-136.066406 0h51.984375c-1.703125 5.628906-3.351563 11.683594-4.925782 18.132812h-57.644531c3.394531-6.554687 6.933594-12.621093 10.585938-18.132812zm-31.246094 33.132812h235.375.011719.015625 75.558593.015626.019531 8.625l12.816406 51.265626h-345.253906zm72.054687 207.867188c0-49.878906 2.625-98.664062 7.601563-141.601562h72.65625v283.195312h-72.65625c-4.976563-42.9375-7.601563-91.71875-7.601563-141.59375zm-51.398437 222.859375h57.648437c1.574219 6.453125 3.222657 12.507813 4.925782 18.140625h-51.984375c-3.65625-5.515625-7.195313-11.585938-10.589844-18.140625zm146.65625 18.140625v-18.140625h58.550781c-1.660156 6.535156-3.394531 12.589844-5.1875 18.140625zm-15 0h-53.363281c-1.792969-5.550781-3.527344-11.605469-5.191406-18.140625h58.554687zm136.0625 0h-51.984375c1.707031-5.632812 3.351562-11.6875 4.929688-18.140625h57.644531c-3.394531 6.554687-6.933594 12.625-10.589844 18.140625zm31.25-33.140625h-235.539063c-.011718 0-.023437 0-.035156 0h-84.046875l-12.820312-51.265625h172.550781c.027344 0 .050781.003906.078125.003906.023437 0 .050781-.003906.074219-.003906h86.675781c.027344 0 .054687.003906.078125.003906.035156 0 .070312-.003906.105469-.003906h85.691406zm0 0"/><path d="m198.515625 414.160156c-13.269531 0-24.066406 10.796875-24.066406 24.066406 0 13.273438 10.796875 24.066407 24.066406 24.066407s24.066406-10.796875 24.066406-24.066407c0-13.269531-10.796875-24.066406-24.066406-24.066406zm0 33.136719c-5 0-9.066406-4.070313-9.066406-9.070313s4.066406-9.066406 9.066406-9.066406 9.066406 4.066406 9.066406 9.066406-4.066406 9.070313-9.066406 9.070313zm0 0"/><path d="m273.847656 438.226562c0 13.273438 10.796875 24.066407 24.066406 24.066407 13.273438 0 24.070313-10.796875 24.070313-24.066407 0-13.269531-10.796875-24.066406-24.070313-24.066406-13.269531 0-24.066406 10.796875-24.066406 24.066406zm33.136719 0c0 5-4.066406 9.066407-9.066406 9.066407s-9.070313-4.066407-9.070313-9.066407 4.070313-9.066406 9.070313-9.066406 9.066406 4.066406 9.066406 9.066406zm0 0"/><path d="m99.113281 414.160156c-13.269531 0-24.066406 10.796875-24.066406 24.066406 0 13.273438 10.796875 24.066407 24.066406 24.066407 13.273438 0 24.066407-10.796875 24.066407-24.066407.003906-13.269531-10.792969-24.066406-24.066407-24.066406zm0 33.136719c-5 0-9.066406-4.070313-9.066406-9.070313s4.066406-9.066406 9.066406-9.066406 9.066407 4.066406 9.066407 9.066406-4.066407 9.070313-9.066407 9.070313zm0 0"/></svg>