<?xml version="1.0" encoding="iso-8859-1"?>
<!-- Generator: Adobe Illustrator 19.0.0, SVG Export Plug-In . SVG Version: 6.00 Build 0)  -->
<svg version="1.1" id="Capa_1" xmlns="http://www.w3.org/2000/svg" xmlns:xlink="http://www.w3.org/1999/xlink" x="0px" y="0px"
	 viewBox="0 0 512 512" style="enable-background:new 0 0 512 512;" xml:space="preserve">
<rect x="155.949" y="8.533" style="fill:#4398D1;" width="119.467" height="59.733"/>
<path style="fill:#E8594A;" d="M292.482,102.4V68.267h-153.6V102.4c-87.492,113.212-96.64,268.476-23.04,391.177l5.973,9.89h273.067
	l23.774-43.58c17.997-32.998,27.426-69.982,27.426-107.571v-36.804C446.082,218.82,384.215,132.975,292.482,102.4z M379.752,340.369
	c-4.309,12.774-18.159,19.627-30.925,15.317c-3.593-1.212-6.852-3.243-9.523-5.931l-1.596-1.596
	c-6.238-6.067-8.678-15.061-6.357-23.45c2.526-8.542,3.806-17.399,3.797-26.3c0.137-24.491-9.583-48-26.965-65.254
	c-9.762-9.327-10.112-24.789-0.794-34.551c9.003-9.421,23.808-10.129,33.664-1.604C381.135,232.951,396.298,289.126,379.752,340.369
	L379.752,340.369z"/>
<path style="fill:#4398D1;" d="M113.282,307.012c-0.188,75.213,60.629,136.346,135.851,136.533
	c16.794,0.043,33.451-3.021,49.126-9.037c5.845-28.868,6.793-58.505,2.807-87.689c-9.873-73.754-48.341-134.801-98.918-167.62
	C148.746,199.074,113.316,250.035,113.282,307.012z"/>
<path style="fill:#F5A338;" d="M197.327,247.467l-29.167,59.597c-8.661,17.69-1.331,39.049,16.358,47.71
	c4.881,2.389,10.24,3.627,15.667,3.627l0,0c19.703-0.009,35.661-15.991,35.644-35.686c0-6.357-1.707-12.595-4.924-18.074
	L197.327,247.467z"/>
<rect x="181.549" y="34.133" style="fill:#337AB5;" width="17.067" height="34.133"/>
<g>
	<rect x="164.482" y="93.867" style="fill:#CF4F42;" width="128" height="17.067"/>
	<path style="fill:#CF4F42;" d="M287.746,186.3c-15.266-10.206-33.22-15.642-51.584-15.633h-3.413V153.6h3.413
		c21.751-0.017,43.017,6.417,61.099,18.5L287.746,186.3z"/>
	<path style="fill:#CF4F42;" d="M330.438,442.829l-7.68-15.258l2.662-1.331c17.758-8.866,30.746-25.054,35.55-44.314l16.555,4.147
		c-6.007,24.09-22.255,44.339-44.467,55.424L330.438,442.829z"/>
</g>
<path d="M114.502,507.853c1.545,2.569,4.318,4.147,7.313,4.147h273.067c3.123,0,5.999-1.707,7.492-4.446l23.774-43.58
	c18.654-34.261,28.433-72.644,28.467-111.65v-36.813c0.094-98.125-61.338-185.779-153.6-219.179V68.267
	c0-4.71-3.823-8.533-8.533-8.533h-8.533v-51.2c0-4.71-3.823-8.533-8.533-8.533H155.948c-4.71,0-8.533,3.823-8.533,8.533v51.2h-8.533
	c-4.71,0-8.533,3.823-8.533,8.533v31.241c-88.627,115.661-97.271,273.826-21.786,398.455L114.502,507.853z M164.482,17.067h102.4
	v42.667h-68.267v-25.6h-17.067v25.6h-17.067V17.067z M145.64,107.614c1.152-1.493,1.775-3.328,1.775-5.214V76.8h136.533v17.067
	H164.482v17.067h126.455c87.697,29.679,146.688,111.991,146.611,204.578v36.813c-0.026,36.156-9.097,71.723-26.385,103.475
	l-21.35,39.134H126.645l-3.413-5.751C50.835,369.655,59.752,217.839,145.64,107.614z"/>
<path d="M302.201,239.241c15.795,15.616,24.602,36.958,24.414,59.17c0,8.09-1.161,16.137-3.456,23.893
	c-3.226,11.392,0.051,23.629,8.533,31.889l1.613,1.613c6.17,6.212,14.566,9.711,23.33,9.711c2.662-0.009,5.308-0.324,7.893-0.939
	c11.034-2.586,19.908-10.769,23.381-21.564c17.579-54.46,1.451-114.159-41.156-152.363c-13.047-11.58-32.87-10.931-45.133,1.476
	c-6.178,6.144-9.626,14.515-9.566,23.228C292.089,224.358,295.75,232.969,302.201,239.241z M313.687,204.194
	c3.012-3.038,7.117-4.745,11.392-4.753c3.78-0.009,7.424,1.382,10.24,3.908c37.581,33.698,51.797,86.366,36.292,134.4
	c-1.613,5.146-5.837,9.045-11.093,10.24c-5.453,1.331-11.213-0.282-15.172-4.267l-1.613-1.613c-4.045-3.849-5.658-9.6-4.198-14.985
	c2.756-9.327,4.147-18.995,4.147-28.715c0.196-26.786-10.445-52.523-29.517-71.339c-3.2-3.089-5.018-7.339-5.043-11.785
	C309.096,211.123,310.743,207.13,313.687,204.194z"/>
<path d="M249.815,452.079c17.596-0.034,35.046-3.285,51.473-9.591c2.731-1.041,4.736-3.396,5.325-6.255
	c6.067-29.798,7.057-60.407,2.935-90.539c-9.822-73.387-48.222-138.283-102.733-173.653c-2.261-1.476-5.094-1.792-7.629-0.853
	c-75.059,27.904-113.28,111.369-85.376,186.428C134.939,414.438,189.194,452.122,249.815,452.079z M201.115,188.774
	c48.469,33.195,82.543,92.339,91.494,159.181c3.644,26.65,3.038,53.709-1.801,80.171c-13.184,4.54-27.017,6.861-40.96,6.886
	c-70.639,0.06-127.957-57.165-128.017-127.812c-0.043-51.917,31.3-98.705,79.317-118.426H201.115z"/>
<path d="M200.185,366.933c24.405,0,44.194-19.797,44.186-44.203c0-7.859-2.099-15.582-6.076-22.357L204.691,243.2
	c-2.389-4.062-7.62-5.419-11.682-3.038c-1.442,0.845-2.603,2.099-3.337,3.601l-29.184,59.597
	c-10.692,21.948-1.57,48.418,20.386,59.11C186.89,365.397,193.495,366.925,200.185,366.933z M175.823,310.81l22.187-45.329
	l25.6,43.52c7.569,12.928,3.226,29.542-9.702,37.12s-29.542,3.226-37.12-9.702C172.205,328.585,171.838,318.967,175.823,310.81z"/>
<path d="M287.746,186.3l9.472-14.199c-18.074-12.075-39.322-18.509-61.056-18.5h-3.413v17.067h3.413
	C254.526,170.658,272.48,176.094,287.746,186.3z"/>
<path d="M325.455,426.24l-2.662,1.331l7.68,15.258l2.654-1.331c22.212-11.085,38.46-31.334,44.467-55.424l-16.555-4.147
	C356.226,401.186,343.23,417.382,325.455,426.24z"/>
<g>
</g>
<g>
</g>
<g>
</g>
<g>
</g>
<g>
</g>
<g>
</g>
<g>
</g>
<g>
</g>
<g>
</g>
<g>
</g>
<g>
</g>
<g>
</g>
<g>
</g>
<g>
</g>
<g>
</g>
</svg>
