<?xml version="1.0" encoding="iso-8859-1"?>
<!-- Generator: Adobe Illustrator 19.0.0, SVG Export Plug-In . SVG Version: 6.00 Build 0)  -->
<svg version="1.1" id="Layer_1" xmlns="http://www.w3.org/2000/svg" xmlns:xlink="http://www.w3.org/1999/xlink" x="0px" y="0px"
	 viewBox="0 0 511.985 511.985" style="enable-background:new 0 0 511.985 511.985;" xml:space="preserve">
<g>
	<path style="fill:#FFCE54;" d="M432.627,156.323c0,56.89-46.107,102.998-102.997,102.998s-102.998-46.108-102.998-102.998
		S272.74,53.325,329.63,53.325S432.627,99.433,432.627,156.323z"/>
	<polygon style="fill:#FFCE54;" points="389.301,247.321 259.303,203.322 245.96,255.993 220.632,259.321 147.962,267.993 
		119.962,276.665 87.963,273.321 10.636,240.665 10.636,263.993 33.307,334.663 69.963,385.991 97.963,420.662 156.633,455.989 
		252.632,469.317 381.957,449.317 422.628,415.053 436.627,361.866 436.627,312.664 	"/>
</g>
<path style="fill:#ED5564;" d="M493.955,134.667l-54.656,4.016l-2.672,59.312h52.328l-5-29.327
	C483.955,168.667,493.299,137.995,493.955,134.667z"/>
<path d="M509.923,128.011c-2.53-3.421-6.858-5.03-10.999-4.062l-31.984,7.405l-20.219,0.734
	c-8.359-56.545-57.217-100.092-116.06-100.092c-64.702,0-117.326,52.64-117.326,117.342c0,30.546,11.734,58.405,30.953,79.312
	c-0.156,2.89-0.203,6.046-0.141,9.515c0.062,2.578,0.172,5.078,0.297,7.375c-39.531,1.406-79.17,9.969-111.545,24.094
	c-50.437,9.203-114.841-42.702-115.482-43.233c-3.297-2.688-7.875-3.156-11.641-1.219c-3.781,1.953-6.046,5.968-5.75,10.202
	c0.109,1.578,2.812,39.141,18.719,83.827c9.406,26.405,21.5,49.827,35.952,69.624c9.5,13.016,20.047,24.437,31.515,34.249
	c1.469,1.891,3.031,3.766,4.703,5.609c14.453,15.999,35.187,28.405,61.608,36.858c29.968,9.578,68.358,14.438,114.138,14.438
	c32.938,0,60.14-2.719,83.154-8.297c23.422-5.688,41.984-14.203,56.766-26.047c14.468-11.578,25.202-26.593,31.936-44.592
	c6.281-16.781,9.328-36.328,9.328-59.766c0-33.343-18.437-54.014-34.687-72.248c-6.655-7.469-12.905-14.484-17.687-21.953
	c14.718-9.781,27.108-22.812,36.155-38.046l35.999,0.969l23.734,2.594c0.375,0.047,0.766,0.062,1.156,0.062
	c3.312,0,6.453-1.547,8.484-4.219c2.266-2.984,2.812-6.938,1.422-10.406l-10.594-26.483l18.687-31.828
	C512.673,136.057,512.438,131.448,509.923,128.011z M468.736,152.636c0.688-0.031,1.359-0.109,2.016-0.266l8.812-2.047l-5.688,9.672
	h-26.375c0.203-2.188,0.328-4.391,0.406-6.609L468.736,152.636z M97.431,289.587c-5.891,4.328-11.078,8.844-15.531,13.547
	c-1.812,1.922-3.469,3.858-5.016,5.812c-22.765-2.828-41.39-20.218-46.827-25.78c-2.422-9.516-4.219-18.172-5.515-25.484
	C42.167,269.087,69.041,283.837,97.431,289.587z M41.276,318.617c7.281,4.172,15.687,7.875,24.906,10.047
	c-1.312,4.343-2,8.718-2,13.108v0.125c0,6.875,0.016,15.219,0.891,24.375C55.932,352.116,47.964,336.147,41.276,318.617z
	 M397.238,283.243c15.046,16.891,29.265,32.827,29.265,58.045c0,41.656-10.562,69.53-33.249,87.702
	c-24.922,19.968-66.327,29.671-126.592,29.671c-79.576,0-133.388-14.891-159.918-44.265c-21.218-23.499-21.218-51.827-21.218-72.499
	v-0.125c0-15.827,18.609-34.687,48.562-49.201c33.953-16.469,78.389-25.906,121.935-25.906c3.046,0,5.937-1.297,7.968-3.578
	c2.016-2.281,2.969-5.312,2.625-8.344c-0.297-2.5-0.531-5.078-0.719-7.625c18.578,12.344,40.843,19.547,64.765,19.547
	c16.343,0,31.905-3.359,46.046-9.422C382.676,266.899,390.16,275.305,397.238,283.243z M330.661,245.337
	c-52.937,0-95.998-43.077-95.998-95.998c0-52.937,43.062-95.998,95.998-95.998s95.998,43.062,95.998,95.998
	C426.659,202.26,383.597,245.337,330.661,245.337z M469.502,188.76c-0.281-0.047-0.578-0.062-0.875-0.062l-27.172-0.734
	c0.75-2.188,1.469-4.391,2.094-6.625h29.219l3.25,8.125L469.502,188.76z"/>
<path d="M362.66,117.34c-5.891,0-10.672,4.781-10.672,10.671c0,5.891,4.781,10.672,10.672,10.672s10.672-4.781,10.672-10.672
	C373.332,122.121,368.551,117.34,362.66,117.34z"/>
<path d="M299.443,309.664c-2.922-0.656-6.766-0.969-11.703-0.969c-29.125,0-93.67,11.156-96.404,11.641
	c-4.297,0.75-7.703,4.031-8.609,8.297c-0.906,4.265,0.875,8.655,4.5,11.077l4.625,3.094c-5.094,1.391-10.625,2.922-16.171,4.531
	c-11.562,3.328-20.922,6.281-27.812,8.75c-13.203,4.719-17.828,7.75-19.797,12.938c-1.328,3.484-0.875,7.391,1.219,10.469
	c0.75,1.094,1.688,2.031,2.781,2.781c1.953,1.344,48.749,32.78,137.997,32.78c1.703,0,3.422-0.016,5.141-0.031
	c15.875-0.219,29.484-3.078,40.452-8.499c13.75-6.797,22.921-17.672,26.515-31.438c3.547-13.516,1.438-27.594-5.938-39.656
	C328.348,322.492,314.942,313.101,299.443,309.664z M321.552,369.679c-5.359,20.422-31.515,23.812-46.624,24.016
	c-45.327,0.609-79.014-7.625-98.982-14.5c-5.328-1.828-9.984-3.672-14-5.391c15.141-4.922,37.859-11.281,58.093-16.375
	c4.094-1.031,7.188-4.375,7.906-8.531c0.719-4.141-1.078-8.328-4.578-10.672l-1.703-1.156c21.281-3.203,50.108-7.03,66.077-7.03
	c4.516,0,6.469,0.312,7.078,0.453c9.875,2.187,18.327,8.046,23.218,16.046C322.348,353.616,323.598,361.835,321.552,369.679z"/>
<g>
</g>
<g>
</g>
<g>
</g>
<g>
</g>
<g>
</g>
<g>
</g>
<g>
</g>
<g>
</g>
<g>
</g>
<g>
</g>
<g>
</g>
<g>
</g>
<g>
</g>
<g>
</g>
<g>
</g>
</svg>
