<?xml version="1.0" encoding="iso-8859-1"?>
<!-- Generator: Adobe Illustrator 19.0.0, SVG Export Plug-In . SVG Version: 6.00 Build 0)  -->
<svg version="1.1" id="Layer_1" xmlns="http://www.w3.org/2000/svg" xmlns:xlink="http://www.w3.org/1999/xlink" x="0px" y="0px"
	 viewBox="0 0 490 490" style="enable-background:new 0 0 490 490;" xml:space="preserve">
<g>
	<g id="XMLID_58_">
		<g>
			<g>
				<path style="fill:#E7ECED;" d="M370,370v100c0,5.5-4.5,10-10,10H130c-5.5,0-10-4.5-10-10V370V200v-80c0-5.5,4.5-10,10-10h35h160
					h35c5.5,0,10,4.5,10,10v80V370z"/>
				<polygon style="fill:#AFB6BB;" points="325,60 325,110 165,110 165,60 200,60 290,60 				"/>
				<rect x="200" y="10" style="fill:#A3A9AE;" width="90" height="50"/>
				<rect x="120" y="200" style="fill:#43B05C;" width="250" height="170"/>
			</g>
			<g id="XMLID_65_">
				<polygon style="fill:#FFD248;" points="315,260 250,260 250,190 185,295 245,295 230,400 				"/>
				<g>
					<g>
						<path style="fill:#231F20;" d="M229.998,410.001c-1.124,0-2.262-0.19-3.368-0.586c-4.473-1.602-7.201-6.127-6.529-10.829
							L233.47,305H185c-3.628,0-6.971-1.965-8.736-5.134s-1.676-7.045,0.233-10.13l65-105c2.352-3.801,6.939-5.58,11.239-4.354
							c4.299,1.223,7.264,5.149,7.264,9.618v60h55c3.612,0,6.943,1.948,8.715,5.096c1.771,3.148,1.708,7.007-0.167,10.094l-85,140
							C236.693,408.245,233.413,410.001,229.998,410.001z M202.951,285H245c2.898,0,5.655,1.258,7.555,3.448
							c1.899,2.189,2.755,5.097,2.345,7.966l-8.09,56.631L297.229,270H250c-5.523,0-10-4.478-10-10v-34.848L202.951,285z"/>
					</g>
				</g>
			</g>
			<g>
				<rect x="145" y="135" style="fill:#231F20;" width="20" height="20"/>
			</g>
			<g>
				<rect x="325" y="135" style="fill:#231F20;" width="20" height="20"/>
			</g>
			<g>
				<rect x="145" y="435" style="fill:#231F20;" width="20" height="20"/>
			</g>
			<g>
				<rect x="325" y="435" style="fill:#231F20;" width="20" height="20"/>
			</g>
			<path style="fill:#231F20;" d="M360,100h-25V60c0-5.522-4.478-10-10-10h-25V10c0-5.523-4.478-10-10-10h-90
				c-5.523,0-10,4.477-10,10v40h-25c-5.523,0-10,4.478-10,10v40h-25c-11.028,0-20,8.972-20,20v350c0,11.028,8.972,20,20,20h230
				c11.028,0,20-8.972,20-20V120C380,108.972,371.028,100,360,100z M280,20v30h-70V20H280z M175,70h140v30H175V70z M130,470v-90h65
				v-20h-65V210h65v-20h-65v-70h230v70h-65v20h65v150h-65v20h65v90H130z"/>
		</g>
	</g>
</g>
<g>
</g>
<g>
</g>
<g>
</g>
<g>
</g>
<g>
</g>
<g>
</g>
<g>
</g>
<g>
</g>
<g>
</g>
<g>
</g>
<g>
</g>
<g>
</g>
<g>
</g>
<g>
</g>
<g>
</g>
</svg>
