<svg xmlns="http://www.w3.org/2000/svg" height="512pt" version="1.1" viewBox="0 0 512.00049 512" width="512pt">
<g id="surface1">
<path d="M 159.460938 478.464844 L 478.464844 159.460938 C 513.238281 124.6875 513.238281 68.308594 478.464844 33.535156 C 443.691406 -1.238281 387.3125 -1.238281 352.539062 33.535156 L 33.535156 352.542969 C -1.238281 387.316406 -1.238281 443.691406 33.535156 478.464844 C 68.308594 513.238281 124.6875 513.238281 159.460938 478.464844 Z M 159.460938 478.464844 " style=" stroke:none;fill-rule:nonzero;fill:rgb(96.862745%,82.352941%,56.862745%);fill-opacity:1;" />
<path d="M 239.535156 398.386719 L 113.613281 272.464844 L 130.566406 255.511719 L 256.488281 381.433594 Z M 239.535156 398.386719 " style=" stroke:none;fill-rule:nonzero;fill:rgb(94.117647%,76.470588%,50.980392%);fill-opacity:1;" />
<path d="M 364.074219 194.480469 L 317.519531 147.929688 C 308.128906 138.535156 292.898438 138.535156 283.503906 147.929688 L 147.925781 283.503906 C 138.535156 292.898438 138.535156 308.128906 147.925781 317.523438 L 194.480469 364.074219 C 203.875 373.46875 219.101562 373.46875 228.496094 364.074219 L 364.074219 228.496094 C 373.464844 219.105469 373.464844 203.875 364.074219 194.480469 Z M 364.074219 194.480469 " style=" stroke:none;fill-rule:nonzero;fill:rgb(89.019608%,66.666667%,45.882353%);fill-opacity:1;" />
<path d="M 478.464844 352.542969 L 159.457031 33.535156 C 124.6875 -1.234375 68.308594 -1.234375 33.535156 33.535156 C -1.238281 68.308594 -1.238281 124.6875 33.535156 159.460938 L 352.542969 478.464844 C 387.3125 513.238281 443.691406 513.238281 478.464844 478.464844 C 513.238281 443.691406 513.238281 387.316406 478.464844 352.542969 Z M 478.464844 352.542969 " style=" stroke:none;fill-rule:nonzero;fill:rgb(96.862745%,82.352941%,56.862745%);fill-opacity:1;" />
<path d="M 317.519531 364.074219 L 364.074219 317.523438 C 373.464844 308.128906 373.464844 292.898438 364.074219 283.507812 L 228.496094 147.925781 C 219.101562 138.535156 203.875 138.535156 194.480469 147.925781 L 147.925781 194.480469 C 138.535156 203.875 138.535156 219.101562 147.925781 228.496094 L 283.503906 364.074219 C 292.898438 373.46875 308.128906 373.46875 317.519531 364.074219 Z M 317.519531 364.074219 " style=" stroke:none;fill-rule:nonzero;fill:rgb(94.117647%,76.470588%,50.980392%);fill-opacity:1;" />
<path d="M 332.765625 347.859375 C 323.371094 357.25 308.140625 357.25 298.75 347.859375 L 163.171875 212.28125 C 153.777344 202.886719 153.777344 187.65625 163.171875 178.265625 L 147.925781 194.480469 C 138.535156 203.875 138.535156 219.105469 147.925781 228.496094 L 283.503906 364.074219 C 292.898438 373.46875 308.128906 373.46875 317.519531 364.074219 Z M 332.765625 347.859375 " style=" stroke:none;fill-rule:nonzero;fill:rgb(89.019608%,66.666667%,45.882353%);fill-opacity:1;" />
<path d="M 483.769531 347.238281 L 392.53125 256 L 483.769531 164.761719 C 521.410156 127.121094 521.410156 65.871094 483.769531 28.230469 C 446.128906 -9.410156 384.878906 -9.410156 347.238281 28.230469 L 256 119.46875 L 164.761719 28.230469 C 127.121094 -9.410156 65.875 -9.410156 28.230469 28.230469 C -9.410156 65.871094 -9.410156 127.121094 28.230469 164.761719 L 119.46875 256 L 28.230469 347.234375 C -9.410156 384.878906 -9.410156 446.125 28.230469 483.769531 C 47.050781 502.589844 71.773438 512 96.496094 512 C 121.21875 512 145.941406 502.589844 164.761719 483.769531 L 256 392.53125 L 347.238281 483.769531 C 366.058594 502.589844 390.78125 512 415.503906 512 C 440.222656 512 464.949219 502.589844 483.769531 483.765625 C 521.410156 446.128906 521.410156 384.878906 483.769531 347.238281 Z M 357.847656 38.839844 C 389.636719 7.050781 441.367188 7.050781 473.160156 38.839844 C 504.953125 70.632812 504.953125 122.363281 473.160156 154.15625 L 381.925781 245.394531 L 369.84375 233.3125 C 381.671875 220.972656 381.519531 201.320312 369.378906 189.175781 L 322.824219 142.625 C 310.679688 130.480469 291.027344 130.332031 278.691406 142.160156 L 266.609375 130.078125 Z M 154.15625 473.164062 C 122.363281 504.953125 70.632812 504.953125 38.839844 473.164062 C 7.046875 441.371094 7.046875 389.640625 38.839844 357.847656 L 130.078125 266.613281 L 142.15625 278.691406 C 136.496094 284.59375 133.378906 292.3125 133.378906 300.515625 C 133.378906 308.941406 136.664062 316.867188 142.621094 322.828125 L 189.175781 369.378906 C 195.136719 375.339844 203.058594 378.621094 211.488281 378.621094 C 219.691406 378.621094 227.410156 375.507812 233.3125 369.847656 L 245.390625 381.925781 Z M 473.160156 473.164062 C 457.261719 489.058594 436.386719 497.007812 415.503906 497.007812 C 394.625 497.003906 373.742188 489.054688 357.847656 473.164062 L 229.730469 345.046875 C 226.800781 342.117188 222.050781 342.117188 219.125 345.046875 C 216.195312 347.976562 216.195312 352.726562 219.125 355.65625 L 222.691406 359.222656 C 216.207031 365.199219 206.078125 365.0625 199.785156 358.769531 L 153.230469 312.214844 C 146.9375 305.921875 146.800781 295.792969 152.777344 289.308594 L 196.085938 332.617188 C 197.550781 334.082031 199.46875 334.816406 201.390625 334.816406 C 203.308594 334.816406 205.230469 334.082031 206.695312 332.617188 C 209.625 329.6875 209.625 324.9375 206.695312 322.007812 L 38.839844 154.15625 C 7.046875 122.363281 7.046875 70.632812 38.839844 38.839844 C 70.632812 7.050781 122.363281 7.046875 154.15625 38.839844 L 282.089844 166.773438 C 285.019531 169.703125 289.769531 169.703125 292.695312 166.773438 C 295.625 163.84375 295.625 159.09375 292.695312 156.164062 L 289.308594 152.777344 C 295.792969 146.800781 305.921875 146.941406 312.214844 153.230469 L 358.769531 199.785156 C 365.0625 206.078125 365.199219 216.207031 359.222656 222.691406 L 315.085938 178.554688 C 312.15625 175.625 307.40625 175.625 304.476562 178.554688 C 301.550781 181.484375 301.550781 186.234375 304.476562 189.164062 L 473.160156 357.847656 C 504.953125 389.636719 504.953125 441.371094 473.160156 473.164062 Z M 473.160156 473.164062 " style=" stroke:none;fill-rule:nonzero;fill:rgb(0%,0%,0%);fill-opacity:1;" />
<path d="M 233.800781 142.625 C 221.496094 130.320312 201.480469 130.320312 189.175781 142.625 L 142.621094 189.175781 C 130.320312 201.480469 130.320312 221.496094 142.621094 233.800781 L 278.199219 369.378906 C 284.351562 375.53125 292.429688 378.605469 300.511719 378.605469 C 308.59375 378.605469 316.671875 375.53125 322.824219 369.378906 L 369.375 322.824219 C 381.679688 310.523438 381.679688 290.503906 369.375 278.203125 Z M 358.769531 312.214844 L 312.214844 358.769531 C 309.089844 361.894531 304.933594 363.617188 300.511719 363.617188 C 296.089844 363.617188 291.933594 361.894531 288.808594 358.769531 L 153.230469 223.191406 C 146.777344 216.738281 146.777344 206.238281 153.230469 199.785156 L 199.785156 153.230469 C 203.011719 150.003906 207.25 148.390625 211.488281 148.390625 C 215.726562 148.390625 219.964844 150.003906 223.191406 153.230469 L 358.769531 288.808594 C 365.222656 295.261719 365.222656 305.761719 358.769531 312.214844 Z M 358.769531 312.214844 " style=" stroke:none;fill-rule:nonzero;fill:rgb(0%,0%,0%);fill-opacity:1;" />
<path d="M 255.121094 248.46875 C 251.007812 248.949219 248.058594 252.675781 248.539062 256.789062 L 248.546875 256.871094 C 248.992188 260.6875 252.226562 263.464844 255.976562 263.464844 C 256.269531 263.464844 256.566406 263.445312 256.863281 263.410156 C 260.980469 262.933594 263.921875 259.167969 263.441406 255.054688 C 262.964844 250.9375 259.238281 247.992188 255.121094 248.46875 Z M 255.121094 248.46875 " style=" stroke:none;fill-rule:nonzero;fill:rgb(0%,0%,0%);fill-opacity:1;" />
<path d="M 208.460938 216.78125 C 208.90625 220.597656 212.140625 223.375 215.886719 223.375 C 216.183594 223.375 216.476562 223.359375 216.777344 223.324219 C 220.890625 222.84375 223.835938 219.078125 223.355469 214.964844 C 222.875 210.851562 219.152344 207.90625 215.035156 208.382812 C 210.921875 208.859375 207.972656 212.585938 208.453125 216.703125 Z M 208.460938 216.78125 " style=" stroke:none;fill-rule:nonzero;fill:rgb(0%,0%,0%);fill-opacity:1;" />
<path d="M 174.949219 208.382812 C 170.832031 208.863281 167.886719 212.589844 168.363281 216.703125 L 168.375 216.78125 C 168.816406 220.597656 172.050781 223.375 175.800781 223.375 C 176.09375 223.375 176.390625 223.359375 176.6875 223.324219 C 180.804688 222.847656 183.746094 219.082031 183.265625 214.964844 C 182.789062 210.851562 179.066406 207.90625 174.949219 208.382812 Z M 174.949219 208.382812 " style=" stroke:none;fill-rule:nonzero;fill:rgb(0%,0%,0%);fill-opacity:1;" />
<path d="M 295.21875 288.636719 C 291.105469 289.117188 288.15625 292.84375 288.636719 296.957031 L 288.644531 297.035156 C 289.089844 300.855469 292.324219 303.632812 296.074219 303.632812 C 296.367188 303.632812 296.660156 303.613281 296.960938 303.578125 C 301.074219 303.101562 304.019531 299.335938 303.539062 295.21875 C 303.058594 291.105469 299.332031 288.164062 295.21875 288.636719 Z M 295.21875 288.636719 " style=" stroke:none;fill-rule:nonzero;fill:rgb(0%,0%,0%);fill-opacity:1;" />
<path d="M 335.296875 288.636719 C 331.183594 289.117188 328.234375 292.84375 328.714844 296.957031 L 328.722656 297.035156 C 329.167969 300.855469 332.402344 303.632812 336.152344 303.632812 C 336.445312 303.632812 336.738281 303.613281 337.039062 303.578125 C 341.152344 303.101562 344.097656 299.335938 343.617188 295.21875 C 343.136719 291.105469 339.414062 288.164062 335.296875 288.636719 Z M 335.296875 288.636719 " style=" stroke:none;fill-rule:nonzero;fill:rgb(0%,0%,0%);fill-opacity:1;" />
<path d="M 255.121094 288.558594 C 251.007812 289.039062 248.058594 292.761719 248.539062 296.878906 L 248.546875 296.957031 C 248.992188 300.773438 252.226562 303.550781 255.976562 303.550781 C 256.269531 303.550781 256.566406 303.535156 256.863281 303.5 C 260.980469 303.019531 263.921875 299.257812 263.441406 295.140625 C 262.964844 291.027344 259.238281 288.082031 255.121094 288.558594 Z M 255.121094 288.558594 " style=" stroke:none;fill-rule:nonzero;fill:rgb(0%,0%,0%);fill-opacity:1;" />
<path d="M 255.121094 208.460938 C 251.007812 208.941406 248.058594 212.667969 248.539062 216.78125 L 248.546875 216.863281 C 248.992188 220.679688 252.226562 223.457031 255.976562 223.457031 C 256.269531 223.457031 256.566406 223.4375 256.863281 223.402344 C 260.980469 222.925781 263.921875 219.160156 263.441406 215.046875 C 262.964844 210.929688 259.238281 207.988281 255.121094 208.460938 Z M 255.121094 208.460938 " style=" stroke:none;fill-rule:nonzero;fill:rgb(0%,0%,0%);fill-opacity:1;" />
<path d="M 215.042969 168.375 C 210.929688 168.855469 207.980469 172.578125 208.460938 176.695312 L 208.46875 176.773438 C 208.914062 180.589844 212.148438 183.367188 215.898438 183.367188 C 216.191406 183.367188 216.488281 183.351562 216.785156 183.316406 C 220.902344 182.835938 223.84375 179.074219 223.363281 174.957031 C 222.886719 170.84375 219.15625 167.902344 215.042969 168.375 Z M 215.042969 168.375 " style=" stroke:none;fill-rule:nonzero;fill:rgb(0%,0%,0%);fill-opacity:1;" />
<path d="M 295.21875 248.46875 C 291.105469 248.949219 288.15625 252.675781 288.636719 256.789062 L 288.644531 256.871094 C 289.089844 260.6875 292.324219 263.464844 296.074219 263.464844 C 296.367188 263.464844 296.660156 263.445312 296.960938 263.410156 C 301.074219 262.933594 304.019531 259.167969 303.539062 255.054688 C 303.058594 250.9375 299.332031 247.992188 295.21875 248.46875 Z M 295.21875 248.46875 " style=" stroke:none;fill-rule:nonzero;fill:rgb(0%,0%,0%);fill-opacity:1;" />
<path d="M 295.21875 328.726562 C 291.105469 329.203125 288.15625 332.929688 288.636719 337.046875 L 288.644531 337.125 C 289.089844 340.941406 292.324219 343.71875 296.074219 343.71875 C 296.367188 343.71875 296.660156 343.703125 296.960938 343.667969 C 301.074219 343.1875 304.019531 339.421875 303.539062 335.308594 C 303.058594 331.195312 299.332031 328.25 295.21875 328.726562 Z M 295.21875 328.726562 " style=" stroke:none;fill-rule:nonzero;fill:rgb(0%,0%,0%);fill-opacity:1;" />
<path d="M 215.042969 248.46875 C 210.929688 248.949219 207.980469 252.675781 208.460938 256.789062 L 208.46875 256.871094 C 208.914062 260.6875 212.148438 263.464844 215.898438 263.464844 C 216.191406 263.464844 216.488281 263.445312 216.785156 263.410156 C 220.902344 262.933594 223.84375 259.167969 223.363281 255.054688 C 222.886719 250.9375 219.15625 247.992188 215.042969 248.46875 Z M 215.042969 248.46875 " style=" stroke:none;fill-rule:nonzero;fill:rgb(0%,0%,0%);fill-opacity:1;" />
</g>
</svg>