<svg height="512pt" viewBox="0 0 512.00076 512" width="512pt" xmlns="http://www.w3.org/2000/svg"><path d="m497.164062 32.597656c-6.429687-6.429687-11.3125-11.3125-17.746093-17.746094-9.800781-9.800781-25.691407-9.800781-35.492188 0-4.902343 4.898438-4.902343 12.84375 0 17.746094 5.132813 5.136719 30.335938 30.335938 35.492188 35.492188 4.898437 4.898437 12.84375 4.898437 17.746093 0 9.800782-9.800782 9.800782-25.691406 0-35.492188zm0 0" fill="#ff5368"/><path d="m435.054688 94.710938c-10.886719-10.890626-6.863282-6.863282-17.75-17.75-4.898438-4.898438-12.84375-4.898438-17.746094 0l-11.152344 11.15625c1.414062 20.5625 1.039062 15.121093 2.28125 33.210937l33.246094 2.246094 11.121094-11.121094c4.898437-4.898437 4.898437-12.84375 0-17.742187zm0 0" fill="#8b9ba9"/><path d="m423.933594 123.574219-35.527344-35.457031c-38.75-22.683594-89.640625-16.839844-122.835938 16.355468l-236.015624 236.019532c-29.40625 29.402343-29.40625 77.074218 0 106.476562l35.488281 35.492188c29.40625 29.40625 77.078125 29.40625 106.480469 0l236.910156-236.910157c33.074218-33.074219 38.234375-83.480469 15.5-121.976562zm0 0" fill="#8b9ba9"/><path d="m423.933594 123.574219-21.152344-21.109375c22.671875 38.484375 17.496094 88.835937-15.554688 121.882812l-236.910156 236.910156c-29.402344 29.402344-77.074218 29.402344-106.476562 0l21.203125 21.203126c29.402343 29.40625 77.074219 29.40625 106.476562 0l236.914063-236.910157c33.074218-33.074219 38.234375-83.480469 15.5-121.976562zm0 0" fill="#6c7a88"/><path d="m241.175781 128.871094-195.207031 195.207031c5.40625 5.410156 137.480469 137.480469 141.96875 141.96875l195.207031-195.207031c-4.488281-4.488282-136.558593-136.558594-141.96875-141.96875zm0 0" fill="#ff7c8b"/><path d="m166.730469 444.84375 195.203125-195.207031 21.207031 21.203125-195.207031 195.207031zm0 0" fill="#ff5368"/><path d="m474.113281 73.394531c3.910157 3.90625 9.042969 5.859375 14.179688 5.859375 5.132812 0 10.269531-1.953125 14.175781-5.859375 12.710938-12.710937 12.710938-33.390625 0-46.101562l-17.746094-17.746094c-6.15625-6.15625-14.34375-9.546875-23.050781-9.546875s-16.894531 3.390625-23.050781 9.546875c-7.835938 7.839844-7.835938 20.519531 0 28.355469l12.441406 12.441406-24.882812 24.886719-3.570313-3.570313c-7.816406-7.816406-20.535156-7.816406-28.351563 0l-7.191406 7.1875c-41.648437-21.4375-93.003906-13.46875-126.796875 20.320313l-236.019531 236.023437c-15.640625 15.636719-24.25 36.425782-24.25 58.542969 0 22.113281 8.609375 42.902344 24.25 58.539063l35.492188 35.492187c16.140624 16.140625 37.339843 24.210937 58.539062 24.210937 21.203125 0 42.402344-8.070312 58.542969-24.210937l236.914062-236.910156c33.429688-33.433594 41.058594-84.449219 19.480469-125.957031l7.136719-7.140626c7.816406-7.816406 7.816406-20.535156 0-28.351562l-3.566407-3.570312 6.679688-6.683594 22.464844 22.464844-1.074219.960937c-3.09375 2.757813-3.359375 7.496094-.605469 10.589844 1.484375 1.660156 3.535156 2.503906 5.601563 2.503906 1.773437 0 3.558593-.625 4.988281-1.902344l14-12.488281c3.09375-2.761719 3.363281-7.5.605469-10.59375-2.757813-3.085938-7.5-3.359375-10.589844-.601562l-1.714844 1.527343-23.066406-23.066406 7.59375-7.597656zm-70.027343 41.007813 13.824218 13.761718c21 36.347657 14.992188 82.3125-14.78125 112.082032l-19.984375 19.984375-75.527343-75.523438c-2.890626-2.898437-7.636719-2.949219-10.609376 0-2.917968 2.929688-2.917968 7.6875 0 10.609375l75.53125 75.519532-184.605468 184.605468-75.519532-75.519531c-2.957031-2.957031-7.699218-2.917969-10.609374 0-2.9375 2.929687-2.914063 7.6875 0 10.601563l75.523437 75.523437-11.109375 11.113281c-26.433594 26.433594-69.441406 26.429688-95.871094 0l-35.492187-35.492187c-12.804688-12.804688-19.855469-29.828125-19.855469-47.933594 0-18.109375 7.050781-35.132813 19.855469-47.9375l11.113281-11.109375 34.625 34.625c2.894531 2.894531 7.632812 2.976562 10.609375 0 2.90625-2.921875 2.9375-7.652344 0-10.613281-.019531-.015625-.039063-.035157-.058594-.050781l-34.570312-34.570313 184.601562-184.597656c39.8125 39.8125 34.039063 34.042969 34.621094 34.625 2.753906 2.730469 7.085937 2.925781 10.050781.503906 3.484375-2.84375 3.644532-8.027344.558594-11.113281 0-.003906-.003906-.007813-.011719-.011719l-34.613281-34.613281 19.09375-19.09375c30.367188-30.367188 77.140625-36.613282 113.742188-15.1875.042968.023437.085937.042968.128906.066406 2.84375 1.597656 6.460937 1.175781 8.863281-1.144531.03125-.03125.066406-.058594.097656-.089844l11.15625-11.152344c1.96875-1.972656 5.171875-1.96875 7.140625 0l17.746094 17.746094c1.96875 1.964844 1.96875 5.167969 0 7.136719l-5.828125 5.832031-9.253906-9.210937c-2.9375-2.921876-7.683594-2.910157-10.605469.023437-2.921875 2.9375-2.910156 7.683594.023438 10.605469zm45.140624-87.109375c-1.972656-1.972657-1.972656-5.164063.003907-7.136719 3.320312-3.324219 7.742187-5.15625 12.441406-5.15625s9.117187 1.832031 12.441406 5.15625l17.746094 17.746094c6.875 6.875 6.878906 18.007812 0 24.882812-1.96875 1.96875-5.171875 1.96875-7.140625.003906zm0 0"/><path d="m225.105469 276.988281c.003906 0 .007812-.003906.011719-.007812l21.203124-21.207031c2.929688-2.929688 2.929688-7.675782 0-10.605469-2.929687-2.929688-7.679687-2.929688-10.605468 0l-15.914063 15.910156-17.675781-17.675781 15.910156-15.914063c2.929688-2.929687 2.929688-7.675781 0-10.605469-2.929687-2.929687-7.679687-2.929687-10.605468 0l-42.429688 42.429688c-2.929688 2.929688-2.929688 7.675781 0 10.605469 2.929688 2.929687 7.679688 2.929687 10.605469 0l15.914062-15.910157 17.675781 17.675782-15.910156 15.914062c-2.929687 2.929688-2.929687 7.675782 0 10.605469 2.929688 2.929687 7.675782 2.929687 10.605469 0l21.207031-21.203125c0-.003906.003906-.007812.007813-.011719zm0 0"/><path d="m226.515625 289.003906c-11.726563 11.730469-11.722656 30.707032 0 42.429688l5.65625 5.65625c2.929687 2.929687 7.679687 2.929687 10.609375 0 2.929688-2.929688 2.929688-7.679688-.003906-10.605469-5.074219-5.078125-12.179688-10.25-9.542969-20.152344l25.101563 25.101563c2.925781 2.929687 7.675781 2.929687 10.605468.003906 11.726563-11.730469 11.726563-30.703125 0-42.429688-11.722656-11.726562-30.699218-11.726562-42.425781-.003906zm35.707031 25.105469-18.378906-18.382813c4.929688-1.316406 10.503906-.101562 14.492188 3.886719 3.921874 3.921875 5.226562 9.464844 3.886718 14.496094zm0 0"/></svg>