<?xml version="1.0" encoding="iso-8859-1"?>
<!-- Generator: Adobe Illustrator 19.0.0, SVG Export Plug-In . SVG Version: 6.00 Build 0)  -->
<svg version="1.1" id="Capa_1" xmlns="http://www.w3.org/2000/svg" xmlns:xlink="http://www.w3.org/1999/xlink" x="0px" y="0px"
	 viewBox="0 0 448.395 448.395" style="enable-background:new 0 0 448.395 448.395;" xml:space="preserve">
<path style="fill:#9B6534;" d="M423.468,331.128c-6.608-5.136-14.952-7.848-24.112-7.848c-14.248,0-29.736,6.496-42.488,17.824
	l-4.52,4.016l-26.096-16.736c-0.304-0.184-0.64-0.264-0.952-0.416c1.824-7.704,2.888-15.704,2.888-23.968
	c0-1.192-0.136-2.352-0.176-3.536c25.776-5.912,50.28-13.968,72.808-24.264c20.064-9.168,28.92-32.952,19.752-53.016
	c-6.488-14.2-20.768-23.376-36.392-23.376c-5.752,0-11.344,1.216-16.608,3.624c-22.16,10.136-47.728,17.416-74.8,22.224
	c26.96-20.656,44.424-53.08,44.424-89.664c0-6.288-0.648-12.408-1.632-18.416c23.376-6.736,40.632-28.08,40.632-53.584
	c0-30.872-25.128-56-56-56c-19.896,0-37.288,10.504-47.224,26.184c-14.784-7.096-31.288-11.184-48.776-11.184
	s-33.992,4.088-48.776,11.184C165.476,18.504,148.084,8,128.188,8c-30.872,0-56,25.128-56,56c0,25.512,17.256,46.856,40.632,53.584
	c-0.992,6.008-1.632,12.128-1.632,18.416c0,36.592,17.472,69.024,44.44,89.672c-27.056-4.808-52.648-12.104-74.816-22.24
	c-5.264-2.408-10.856-3.624-16.608-3.624c-15.624,0-29.904,9.168-36.392,23.384c-9.176,20.056-0.312,43.832,19.752,53.008
	c22.528,10.296,47.032,18.344,72.808,24.264c-0.04,1.184-0.176,2.344-0.176,3.536c0,8.296,1.072,16.328,2.912,24.056
	c-0.248,0.128-0.584,0.08-0.824,0.224l-26.248,16.832l-4.528-4.024c-12.752-11.328-28.232-17.824-42.48-17.824
	c-9.152,0-17.504,2.72-24.112,7.848c-20.888,16.248-20.28,52.136,1.376,79.992C40.364,429.2,60.5,440,80.188,440
	c6.56,0,14.16-2.096,19.8-5.464l67.168-40.32c0.88-0.52,1.232-1.456,1.84-2.184C185.004,402.088,203.892,408,224.188,408
	c20.304,0,39.184-5.912,55.192-15.968c0.616,0.744,0.976,1.688,1.864,2.216l67.128,40.288c5.664,3.368,13.256,5.464,19.816,5.464
	c19.688,0,39.832-10.8,53.888-28.872C443.732,383.256,444.364,347.368,423.468,331.128z"/>
<g>
	<circle style="fill:#D5B99B;" cx="384.188" cy="240" r="40"/>
	<ellipse style="fill:#D5B99B;" cx="224.188" cy="304" rx="62.512" ry="80"/>
	<path style="fill:#D5B99B;" d="M155.068,46.744C149.38,37.896,139.492,32,128.188,32c-17.672,0-32,14.328-32,32
		c0,14.512,9.72,26.624,22.952,30.544C126.66,75.528,139.164,59.08,155.068,46.744z"/>
	<path style="fill:#D5B99B;" d="M320.188,32c-11.304,0-21.184,5.896-26.88,14.744c15.904,12.336,28.408,28.784,35.928,47.8
		c13.232-3.92,22.952-16.032,22.952-30.544C352.188,46.328,337.86,32,320.188,32z"/>
	<circle style="fill:#D5B99B;" cx="224.188" cy="176" r="72"/>
	<circle style="fill:#D5B99B;" cx="64.188" cy="240" r="40"/>
	<path style="fill:#D5B99B;" d="M78.908,439.896c-18.656,0-38.816-11.032-52.624-28.784c-17.016-21.88-21.248-49.704-10.704-68.568
		c4.984-2.144,10.504-3.224,16.408-3.224c18.656,0,38.816,11.032,52.608,28.776c17.016,21.888,21.248,49.712,10.704,68.584
		C90.316,438.816,84.812,439.896,78.908,439.896z"/>
	<path style="fill:#D5B99B;" d="M369.468,439.896c-5.904,0-11.424-1.088-16.408-3.216c-10.544-18.864-6.296-46.68,10.72-68.568
		c13.8-17.76,33.968-28.784,52.624-28.784c5.904,0,11.408,1.08,16.392,3.208c10.544,18.872,6.296,46.696-10.72,68.576
		C408.284,428.864,388.124,439.896,369.468,439.896z"/>
</g>
<circle style="fill:#010101;" cx="224.188" cy="160" r="16"/>
<path style="fill:#D64231;" d="M277.268,301.448c-2.84,0-5.592-0.64-8.168-1.896l-32.408-11.56l-25.112-0.152l-33.624,12.056
	c-1.784,0.92-4.528,1.56-7.36,1.56c-10.296,0-18.672-8.384-18.672-18.688v-37.432c0-10.296,8.376-18.68,18.672-18.68
	c2.832,0,5.576,0.632,8.16,1.888l32.72,11.816l25.328-0.152l33.08-11.992c10.768-5.52,26.048,2.88,26.048,17.12v37.432
	c0,5.12-2.016,9.872-5.672,13.416C286.732,299.576,282.124,301.448,277.268,301.448z"/>
<path style="fill:#010101;" d="M438.404,336.328c-19.264-30.352-59.592-25.416-86.84-1.216l-17.456-11.192
	c1.064-5.696,1.768-11.504,1.912-17.48c22.376-5.48,43.792-12.472,63.736-21.256c19.656-6.792,32.696-25.408,32.36-45.88
	c-0.248-26.856-22.096-47.496-47.952-47.496c-6.672,0-13.464,1.4-19.936,4.352c-14.536,6.648-30.648,12.016-47.608,16.336
	c17.208-20.768,27.56-47.424,27.56-76.504c0-4.344-0.256-8.624-0.704-12.84c23.752-9.32,40.712-32.096,40.712-59.152
	c0-35.344-28.656-64-64-64c-20.608,0-38.76,9.864-50.432,25.016C255.708,19.232,240.332,16,224.188,16s-31.52,3.232-45.568,9.016
	C166.948,9.864,148.796,0,128.188,0c-35.344,0-64,28.656-64,64c0,27.064,16.96,49.832,40.704,59.16
	c-0.448,4.216-0.704,8.496-0.704,12.84c0,29.08,10.352,55.736,27.56,76.504c-16.96-4.328-33.064-9.688-47.608-16.336
	c-6.472-2.952-13.256-4.352-19.936-4.352c-26.536,0-48.016,21.408-48.016,48.192c0,19.352,12.392,38.256,32.424,45.184
	c19.944,8.784,41.36,15.776,63.744,21.256c0.144,5.976,0.848,11.784,1.912,17.48L96.812,335.12
	c-27.208-24.168-67.56-29.168-86.84,1.216c-33.68,53.08,40.968,136.824,94.112,105.072l66.048-39.632
	C186.196,410.672,204.516,416,224.188,416s37.992-5.328,54.056-14.24l66.048,39.632C397.26,473.04,472.172,389.552,438.404,336.328z
	 M384.188,208c15,0,29.224,11.168,31.52,27.272c3.216,21.784-15.52,36.728-31.52,36.728c-17.672,0-32-14.328-32-32
	S366.516,208,384.188,208z M339.596,222.528c-2.136,5.432-3.408,11.296-3.408,17.472c0,18.608,10.752,34.6,26.272,42.56
	c-8.816,2.92-17.984,5.336-27.192,7.672c-2.8-22.688-12.44-43.208-26.736-59.592C319.204,228.328,329.612,225.664,339.596,222.528z
	 M320.188,16c26.472,0,48,21.536,48,48c0,19.152-11.36,35.504-27.632,43.168c-7.864-31.832-28.376-58.608-55.968-74.736
	C293.38,22.504,305.916,16,320.188,16z M80.188,64c0-26.464,21.528-48,48-48c14.272,0,26.816,6.504,35.6,16.432
	c-27.592,16.128-48.096,42.904-55.968,74.736C91.556,99.504,80.188,83.152,80.188,64z M120.188,136c0-57.344,46.648-104,104-104
	s104,46.656,104,104c0,29.728-12.608,56.512-32.672,75.488c5.368-10.744,8.672-22.68,8.672-35.488
	c0-20.736-8.128-39.472-21.112-53.704c5.344-2.592,9.112-7.96,9.112-14.296c0-8.832-7.168-16-16-16
	c-7.864,0-14.104,5.776-15.448,13.256C249.732,99.536,237.428,96,224.188,96s-25.544,3.536-36.552,9.256
	C186.292,97.784,180.052,92,172.188,92c-8.832,0-16,7.168-16,16c0,6.336,3.768,11.712,9.112,14.296
	c-12.984,14.232-21.112,32.968-21.112,53.704c0,12.808,3.304,24.744,8.672,35.488C132.796,192.52,120.188,165.728,120.188,136z
	 M271.06,219.296c-1.656,0.376-3.288,0.872-4.864,1.576l-31.16,11.296C224.26,232.224,224.068,232,224.068,232
	s-0.776,0.232-11.544,0.296l-31.52-11.424c-0.992-0.44-2.056-0.536-3.08-0.848c-10.928-11.48-17.736-26.928-17.736-44.024
	c0-35.344,28.656-64,64-64s64,28.656,64,64C288.188,192.76,281.604,207.888,271.06,219.296z M159.596,245.28
	c0-7.856,8.232-13.04,15.328-9.592l24.096,8.728c-2.64,3.4-4.696,7.288-5.816,11.584h-17.016v16h17.008
	c1.128,4.328,3.2,8.232,5.872,11.656l-24.152,8.656c-7.112,3.456-15.328-1.752-15.328-9.592v-37.44H159.596z M222.908,248.232
	c10.936-0.064,17.16,7.456,17.16,15.768c0,8.584-6.832,15.496-15.336,15.864c-10.456-0.072-16.664-7.672-16.664-15.864
	C208.068,255.592,214.652,248.856,222.908,248.232z M254.924,256c-1.144-4.408-3.28-8.384-6.024-11.848l23.36-8.464
	c7.096-3.448,15.328,1.736,15.328,9.592v37.432c0,7.904-8.248,13.032-15.328,9.592l-23.416-8.392c2.776-3.48,4.928-7.488,6.08-11.92
	h17v-16C271.924,256,254.924,256,254.924,256z M32.244,239.456C32.532,221.808,47.252,208,64.188,208c17.672,0,32,14.328,32,32
	s-14.328,32-32,32C49.428,272,32.044,259.328,32.244,239.456z M113.108,290.224c-9.216-2.336-18.376-4.744-27.192-7.664
	c15.52-7.96,26.272-23.952,26.272-42.56c0-6.176-1.272-12.04-3.408-17.472c9.984,3.136,20.392,5.8,31.064,8.104
	C125.548,247.024,115.908,267.528,113.108,290.224z M89.596,430.264c0,0-0.04,0.016-0.064,0.024
	c-38.296,12.32-85.496-43.704-68.232-81.36C59.396,336.6,106.956,392.24,89.596,430.264z M163.004,387.384l-54.56,32.736
	c2.04-18.192-3.616-39.016-17.536-56.928c-13.416-17.248-31.36-27.864-48.864-30.88c22.28-4.536,37.2,8.6,53.2,22.808
	c1.696-1.088,31.328-20.552,33.344-20.552C146.46,334.568,171.596,382.304,163.004,387.384z M268.916,388.616
	C255.532,395.744,240.396,400,224.188,400s-31.336-4.256-44.728-11.384c4.704-24.424-24.496-68.864-49.944-69.928
	c-0.776-4.8-1.328-9.672-1.328-14.688c0-19.088,5.728-36.784,15.408-51.72v30.432c0,19.224,19.808,32.16,37.368,24.424
	l31.664-11.344c11.872,0.072,11.44,0.208,11.44,0.208s-0.584-0.144,10.864-0.072l31.296,11.216
	c17.584,7.744,37.368-5.232,37.368-24.424v-32.344c10.432,15.304,16.592,33.728,16.592,53.624c0,5.016-0.552,9.888-1.328,14.688
	C293.404,319.752,264.212,364.192,268.916,388.616z M339.932,420.12l-54.648-32.792c-8.488-5.016,16.68-52.76,34.504-52.76
	c2.208,0,31.472,19.352,33.336,20.552l9.056-8.048c12.072-10.72,28.12-18.04,44.144-14.768
	c-17.504,3.016-35.456,13.632-48.864,30.88C343.548,381.096,337.892,401.928,339.932,420.12z M358.844,430.296
	c-0.016-0.008-0.04-0.016-0.04-0.016c-17.36-37.968,30.128-93.688,68.28-81.344C444.956,387.952,395.94,442.224,358.844,430.296z"/>
<g>
</g>
<g>
</g>
<g>
</g>
<g>
</g>
<g>
</g>
<g>
</g>
<g>
</g>
<g>
</g>
<g>
</g>
<g>
</g>
<g>
</g>
<g>
</g>
<g>
</g>
<g>
</g>
<g>
</g>
</svg>
