<?xml version="1.0" encoding="iso-8859-1"?>
<!-- Generator: Adobe Illustrator 19.0.0, SVG Export Plug-In . SVG Version: 6.00 Build 0)  -->
<svg version="1.1" id="Capa_1" xmlns="http://www.w3.org/2000/svg" xmlns:xlink="http://www.w3.org/1999/xlink" x="0px" y="0px"
	 viewBox="0 0 512 512" style="enable-background:new 0 0 512 512;" xml:space="preserve">
<path style="fill:#97D3E6;" d="M405.777,160.593h-299.52c-7.987,0-15.718,2.799-21.854,7.91L42.667,203.26v221.867l41.702,34.756
	c6.135,5.111,13.867,7.91,21.854,7.91h299.52c7.987,0,15.718-2.799,21.854-7.91l41.737-34.756V203.26l-41.702-34.756
	C421.495,163.383,413.764,160.584,405.777,160.593z"/>
<rect x="469.333" y="203.26" style="fill:#7DBDD1;" width="34.133" height="221.867"/>
<path style="fill:#93CEE0;" d="M54.306,434.82l30.063,25.062c6.135,5.111,13.867,7.91,21.854,7.91h299.52
	c7.987,0,15.718-2.799,21.854-7.91l41.737-34.756V203.26l-22.972-19.14C338.133,338.76,154.897,407.479,54.306,434.82z"/>
<g>
	<path style="fill:#7DBDD1;" d="M405.777,467.793h-299.52c-7.987,0-15.718-2.799-21.854-7.91l-41.737-34.756l41.702-34.756
		c6.135-5.111,13.867-7.91,21.854-7.91h299.52c7.987,0,15.718,2.799,21.854,7.91l41.737,34.756l-41.702,34.756
		C421.495,464.994,413.764,467.793,405.777,467.793z"/>
	<rect x="8.533" y="203.26" style="fill:#7DBDD1;" width="34.133" height="221.867"/>
</g>
<path style="fill:#EBEBEB;" d="M179.2,271.526l-76.8-204.8h76.117c11.631,0,23.057-3.038,33.161-8.806l8.482-4.847
	c21.973-12.553,49.161-11.614,70.221,2.423l0,0c10.974,7.313,23.868,11.221,37.052,11.23H409.6l-76.8,204.8H179.2z"/>
<g>
	
		<rect x="209.584" y="99.977" transform="matrix(-0.9887 0.15 -0.15 -0.9887 462.0653 342.4616)" style="fill:#D4D4D4;" width="17.067" height="177.359"/>
	
		<rect x="206.153" y="179.202" transform="matrix(-0.1494 0.9888 -0.9888 -0.1494 523.6417 -74.9955)" style="fill:#D4D4D4;" width="175.85" height="17.067"/>
</g>
<rect x="136.533" y="262.993" style="fill:#7DBDD1;" width="238.933" height="17.067"/>
<path d="M503.467,194.726h-31.044l-39.339-32.785c-7.671-6.383-17.331-9.873-27.307-9.882h-19.063l30.882-82.33
	c1.655-4.412-0.572-9.335-4.983-10.991c-0.964-0.367-1.98-0.555-3.012-0.546h-82.167c-11.511,0.017-22.767-3.396-32.333-9.788
	c-23.714-15.932-54.434-16.99-79.189-2.731l-8.474,4.838c-8.806,5.026-18.773,7.671-28.919,7.68H102.4
	c-4.71-0.009-8.533,3.814-8.542,8.525c0,1.033,0.188,2.048,0.546,3.012l30.882,82.33h-19.063
	c-9.975,0.009-19.635,3.499-27.307,9.882l-39.339,32.785H8.533c-4.71,0-8.533,3.823-8.533,8.533v221.867
	c0,4.71,3.823,8.533,8.533,8.533h31.044l39.339,32.785c7.671,6.383,17.331,9.873,27.307,9.882h299.52
	c9.975-0.009,19.635-3.499,27.307-9.882l39.373-32.785h31.044c4.71,0,8.533-3.823,8.533-8.533V203.26
	C512,198.541,508.177,194.726,503.467,194.726z M178.517,75.26c13.107,0,25.993-3.422,37.376-9.933l8.474-4.83
	c19.149-11.034,42.914-10.214,61.261,2.108c12.373,8.269,26.923,12.672,41.805,12.655h69.854l-70.4,187.733h-35.379l24.132-160.87
	l-16.879-2.56l-24.508,163.43h-36.506L213.239,99.597l-16.879,2.56l24.132,160.836h-35.379l-70.4-187.733H178.517z M89.839,175.1
	c4.599-3.84,10.394-5.956,16.384-5.973h25.463l35.2,93.867h-30.353v17.067h238.933v-17.067h-30.353l35.2-93.867h25.463
	c5.99,0.017,11.785,2.133,16.384,5.973l38.639,32.162v199.68l-27.716-23.1c-7.663-6.391-17.323-9.899-27.307-9.916h-299.52
	c-9.975,0.009-19.635,3.499-27.307,9.882l-27.75,23.1v-199.68L89.839,175.1z M17.067,211.793h17.067v204.8H17.067V211.793z
	 M405.777,459.26h-299.52c-5.99-0.017-11.785-2.133-16.384-5.973l-33.877-28.16l33.843-28.16c4.599-3.84,10.394-5.956,16.384-5.973
	h299.52c5.99,0.017,11.785,2.133,16.384,5.973l33.877,28.16l-33.843,28.203C417.562,457.152,411.759,459.251,405.777,459.26z
	 M494.933,416.593h-17.067v-204.8h17.067V416.593z"/>
<g>
</g>
<g>
</g>
<g>
</g>
<g>
</g>
<g>
</g>
<g>
</g>
<g>
</g>
<g>
</g>
<g>
</g>
<g>
</g>
<g>
</g>
<g>
</g>
<g>
</g>
<g>
</g>
<g>
</g>
</svg>
